<svg width="48" height="48" viewBox="0 0 48 48" fill="none" xmlns="http://www.w3.org/2000/svg">
<rect x="6.10352e-05" width="48" height="48" rx="24" fill="url(#paint0_linear_502_1202)"/>
<path d="M29.2501 30.7917H27.4884C27.2862 30.7917 27.1134 30.6189 27.1134 30.4167C27.1134 30.2145 27.2862 30.0417 27.4884 30.0417H29.2501C32.5829 30.0417 35.2917 27.3328 35.2917 24C35.2917 20.6672 32.5829 17.9583 29.2501 17.9583H27.5001C27.2979 17.9583 27.1251 17.7855 27.1251 17.5833C27.1251 17.3768 27.2905 17.2083 27.5001 17.2083H29.2501C32.9989 17.2083 36.0417 20.2512 36.0417 24C36.0417 27.7489 32.9989 30.7917 29.2501 30.7917Z" stroke="white"/>
<path d="M20.5 30.7917H18.75C15.0012 30.7917 11.9584 27.7489 11.9584 24C11.9584 20.2512 15.0012 17.2083 18.75 17.2083H20.5C20.7022 17.2083 20.875 17.3812 20.875 17.5833C20.875 17.7855 20.7022 17.9583 20.5 17.9583H18.75C15.4172 17.9583 12.7084 20.6672 12.7084 24C12.7084 27.3328 15.4172 30.0417 18.75 30.0417H20.5C20.7022 30.0417 20.875 30.2145 20.875 30.4167C20.875 30.6189 20.7022 30.7917 20.5 30.7917Z" stroke="white"/>
<path d="M28.6667 24.375H19.3334C19.1312 24.375 18.9584 24.2022 18.9584 24C18.9584 23.7978 19.1312 23.625 19.3334 23.625H28.6667C28.8689 23.625 29.0417 23.7978 29.0417 24C29.0417 24.2022 28.8689 24.375 28.6667 24.375Z" stroke="white"/>
<defs>
<linearGradient id="paint0_linear_502_1202" x1="11.0001" y1="-8.69234e-08" x2="24.0001" y2="48" gradientUnits="userSpaceOnUse">
<stop stop-color="#2867FF"/>
<stop offset="1" stop-color="#27A4FF"/>
</linearGradient>
</defs>
</svg>
