<svg width="49" height="48" viewBox="0 0 49 48" fill="none" xmlns="http://www.w3.org/2000/svg">
<rect x="0.333374" width="48" height="48" rx="24" fill="url(#paint0_linear_502_1213)"/>
<rect x="0.333374" width="48" height="48" rx="24" fill="url(#paint1_linear_502_1213)"/>
<path d="M20.4583 24.945V23.7379L19.6048 24.5915L18.7648 25.4315C18.6217 25.5745 18.3783 25.5745 18.2352 25.4315C18.0922 25.2884 18.0922 25.045 18.2352 24.9019L20.5686 22.5686C20.6731 22.4641 20.8412 22.4307 20.9747 22.4879L20.9817 22.4909L20.9889 22.4937C21.113 22.5425 21.2083 22.6767 21.2083 22.8334V29.8334C21.2083 30.0356 21.0355 30.2084 20.8333 30.2084C20.6312 30.2084 20.4583 30.0356 20.4583 29.8334V24.945Z" stroke="white"/>
<path d="M23.1667 25.5417C23.0705 25.5417 22.9782 25.5077 22.9019 25.4314L20.5686 23.0981C20.4255 22.955 20.4255 22.7116 20.5686 22.5685C20.7117 22.4255 20.9551 22.4255 21.0982 22.5685L23.4315 24.9019C23.5746 25.045 23.5746 25.2884 23.4315 25.4314C23.3552 25.5077 23.2629 25.5417 23.1667 25.5417Z" stroke="white"/>
<path d="M27.8334 36.0416H20.8334C17.7232 36.0416 15.6229 35.3753 14.2904 34.0429C12.958 32.7105 12.2917 30.6101 12.2917 27.5V20.5C12.2917 17.3899 12.958 15.2895 14.2904 13.9571C15.6229 12.6247 17.7232 11.9583 20.8334 11.9583H26.6667C26.8689 11.9583 27.0417 12.1311 27.0417 12.3333C27.0417 12.5355 26.8689 12.7083 26.6667 12.7083H20.8334C18.1089 12.7083 16.1131 13.1877 14.8171 14.4837C13.5211 15.7797 13.0417 17.7755 13.0417 20.5V27.5C13.0417 30.2244 13.5211 32.2202 14.8171 33.5162C16.1131 34.8122 18.1089 35.2916 20.8334 35.2916H27.8334C30.5578 35.2916 32.5536 34.8122 33.8496 33.5162C35.1456 32.2202 35.625 30.2244 35.625 27.5V21.6666C35.625 21.4645 35.7978 21.2916 36 21.2916C36.2022 21.2916 36.375 21.4645 36.375 21.6666V27.5C36.375 30.6101 35.7087 32.7105 34.3763 34.0429C33.0438 35.3753 30.9435 36.0416 27.8334 36.0416Z" stroke="white"/>
<path d="M26.5112 11.9937L26.5183 11.9909L26.5253 11.9879C26.652 11.9336 26.8129 11.958 26.9363 12.0734L36.2648 21.4019C36.3693 21.5064 36.4027 21.6746 36.3454 21.8081C36.2826 21.9546 36.146 22.0417 36 22.0417H31.3334C29.3843 22.0417 28.1654 21.6591 27.4198 20.9136C26.6742 20.168 26.2917 18.9491 26.2917 17V12.3334C26.2917 12.1767 26.387 12.0425 26.5112 11.9937ZM27.8952 14.0915L27.0417 13.2379V14.445V17C27.0417 18.5054 27.2258 19.6487 27.9552 20.3782C28.6847 21.1076 29.828 21.2917 31.3334 21.2917H33.8884H35.0955L34.2419 20.4381L27.8952 14.0915Z" stroke="white"/>
<defs>
<linearGradient id="paint0_linear_502_1213" x1="11.3334" y1="-8.69234e-08" x2="24.3334" y2="48" gradientUnits="userSpaceOnUse">
<stop stop-color="#2867FF"/>
<stop offset="1" stop-color="#27A4FF"/>
</linearGradient>
<linearGradient id="paint1_linear_502_1213" x1="11.3334" y1="-8.69234e-08" x2="24.3334" y2="48" gradientUnits="userSpaceOnUse">
<stop stop-color="#2867FF"/>
<stop offset="1" stop-color="#27A4FF"/>
</linearGradient>
</defs>
</svg>
