<svg width="49" height="48" viewBox="0 0 49 48" fill="none" xmlns="http://www.w3.org/2000/svg">
<rect x="0.666656" width="48" height="48" rx="24" fill="url(#paint0_linear_502_251)"/>
<path d="M17.6667 26.8717C17.4645 26.8717 17.2917 26.6989 17.2917 26.4967V21.4916C17.2917 21.2894 17.4645 21.1166 17.6667 21.1166C17.8688 21.1166 18.0417 21.2894 18.0417 21.4916V26.4967C18.0417 26.7062 17.8732 26.8717 17.6667 26.8717Z" stroke="white"/>
<path d="M21.1667 28.5399C20.9645 28.5399 20.7917 28.3671 20.7917 28.1649V19.8349C20.7917 19.6327 20.9645 19.4599 21.1667 19.4599C21.3688 19.4599 21.5417 19.6327 21.5417 19.8349V28.1649C21.5417 28.3744 21.3732 28.5399 21.1667 28.5399Z" stroke="white"/>
<path d="M24.6667 30.2084C24.4645 30.2084 24.2917 30.0355 24.2917 29.8334V18.1667C24.2917 17.9645 24.4645 17.7917 24.6667 17.7917C24.8688 17.7917 25.0417 17.9645 25.0417 18.1667V29.8334C25.0417 30.0355 24.8688 30.2084 24.6667 30.2084Z" stroke="white"/>
<path d="M28.1667 28.5399C27.9645 28.5399 27.7917 28.3671 27.7917 28.1649V19.8349C27.7917 19.6327 27.9645 19.4599 28.1667 19.4599C28.3688 19.4599 28.5417 19.6327 28.5417 19.8349V28.1649C28.5417 28.3744 28.3732 28.5399 28.1667 28.5399Z" stroke="white"/>
<path d="M31.6667 26.8717C31.4645 26.8717 31.2917 26.6989 31.2917 26.4967V21.4916C31.2917 21.2894 31.4645 21.1166 31.6667 21.1166C31.8688 21.1166 32.0417 21.2894 32.0417 21.4916V26.4967C32.0417 26.7062 31.8732 26.8717 31.6667 26.8717Z" stroke="white"/>
<path d="M24.6667 36.0416C18.0245 36.0416 12.625 30.6422 12.625 24C12.625 17.3578 18.0245 11.9583 24.6667 11.9583C31.3088 11.9583 36.7083 17.3578 36.7083 24C36.7083 30.6422 31.3088 36.0416 24.6667 36.0416ZM24.6667 12.7083C18.4405 12.7083 13.375 17.7738 13.375 24C13.375 30.2261 18.4405 35.2916 24.6667 35.2916C30.8928 35.2916 35.9583 30.2261 35.9583 24C35.9583 17.7738 30.8928 12.7083 24.6667 12.7083Z" stroke="white"/>
<defs>
<linearGradient id="paint0_linear_502_251" x1="11.6667" y1="-8.69234e-08" x2="24.6667" y2="48" gradientUnits="userSpaceOnUse">
<stop stop-color="#2867FF"/>
<stop offset="1" stop-color="#27A4FF"/>
</linearGradient>
</defs>
</svg>
