<svg width="48" height="48" viewBox="0 0 48 48" fill="none" xmlns="http://www.w3.org/2000/svg">
<rect width="48" height="48" rx="24" fill="url(#paint0_linear_924_6682)"/>
<rect width="48" height="48" rx="24" fill="url(#paint1_linear_924_6682)"/>
<path d="M29.2499 30.7923H27.4883C27.2861 30.7923 27.1133 30.6195 27.1133 30.4173C27.1133 30.2151 27.2861 30.0423 27.4883 30.0423H29.2499C32.5828 30.0423 35.2916 27.3335 35.2916 24.0006C35.2916 20.6678 32.5828 17.959 29.2499 17.959H27.4999C27.2978 17.959 27.1249 17.7862 27.1249 17.584C27.1249 17.3774 27.2904 17.209 27.4999 17.209H29.2499C32.9988 17.209 36.0416 20.2518 36.0416 24.0006C36.0416 27.7495 32.9988 30.7923 29.2499 30.7923Z" stroke="white"/>
<path d="M20.5007 30.7923H18.7507C15.0018 30.7923 11.959 27.7495 11.959 24.0006C11.959 20.2518 15.0018 17.209 18.7507 17.209H20.5007C20.7028 17.209 20.8757 17.3818 20.8757 17.584C20.8757 17.7862 20.7028 17.959 20.5007 17.959H18.7507C15.4178 17.959 12.709 20.6678 12.709 24.0006C12.709 27.3335 15.4178 30.0423 18.7507 30.0423H20.5007C20.7028 30.0423 20.8757 30.2151 20.8757 30.4173C20.8757 30.6195 20.7028 30.7923 20.5007 30.7923Z" stroke="white"/>
<path d="M28.6673 24.375H19.334C19.1318 24.375 18.959 24.2022 18.959 24C18.959 23.7978 19.1318 23.625 19.334 23.625H28.6673C28.8695 23.625 29.0423 23.7978 29.0423 24C29.0423 24.2022 28.8695 24.375 28.6673 24.375Z" stroke="white"/>
<defs>
<linearGradient id="paint0_linear_924_6682" x1="11" y1="-8.69234e-08" x2="24" y2="48" gradientUnits="userSpaceOnUse">
<stop stop-color="#009E95"/>
<stop offset="1" stop-color="#01B8AE"/>
</linearGradient>
<linearGradient id="paint1_linear_924_6682" x1="11" y1="-8.69234e-08" x2="24" y2="48" gradientUnits="userSpaceOnUse">
<stop stop-color="#009E95"/>
<stop offset="1" stop-color="#01B8AE"/>
</linearGradient>
</defs>
</svg>
