<svg width="49" height="48" viewBox="0 0 49 48" fill="none" xmlns="http://www.w3.org/2000/svg">
<rect x="0.332031" width="48" height="48" rx="24" fill="url(#paint0_linear_924_6703)"/>
<rect x="0.332031" width="48" height="48" rx="24" fill="url(#paint1_linear_924_6703)"/>
<path d="M20.4574 24.9459V23.7388L19.6038 24.5923L18.7638 25.4323C18.6207 25.5754 18.3773 25.5754 18.2343 25.4323C18.0912 25.2893 18.0912 25.0458 18.2343 24.9028L20.5676 22.5694L20.214 22.2159L20.5676 22.5694C20.6721 22.4649 20.8403 22.4316 20.9737 22.4888L20.9808 22.4918L20.9879 22.4946C21.1121 22.5434 21.2074 22.6776 21.2074 22.8342V29.8342C21.2074 30.0364 21.0346 30.2092 20.8324 30.2092C20.6302 30.2092 20.4574 30.0364 20.4574 29.8342V24.9459Z" stroke="white"/>
<path d="M23.1644 25.5414C23.0682 25.5414 22.9759 25.5074 22.8996 25.4311L20.5663 23.0978C20.4232 22.9547 20.4232 22.7113 20.5663 22.5682C20.7094 22.4252 20.9528 22.4252 21.0958 22.5682L23.4292 24.9016C23.5723 25.0446 23.5723 25.2881 23.4292 25.4311C23.3529 25.5074 23.2606 25.5414 23.1644 25.5414Z" stroke="white"/>
<path d="M27.8327 36.0423H20.8327C17.7226 36.0423 15.6222 35.376 14.2898 34.0436C12.9574 32.7111 12.291 30.6108 12.291 27.5007V20.5007C12.291 17.3905 12.9574 15.2902 14.2898 13.9577C15.6222 12.6253 17.7226 11.959 20.8327 11.959H26.666C26.8682 11.959 27.041 12.1318 27.041 12.334C27.041 12.5362 26.8682 12.709 26.666 12.709H20.8327C18.1082 12.709 16.1124 13.1884 14.8164 14.4844C13.5204 15.7804 13.041 17.7762 13.041 20.5007V27.5007C13.041 30.2251 13.5204 32.2209 14.8164 33.5169C16.1124 34.8129 18.1082 35.2923 20.8327 35.2923H27.8327C30.5571 35.2923 32.5529 34.8129 33.8489 33.5169C35.1449 32.2209 35.6243 30.2251 35.6243 27.5007V21.6673C35.6243 21.4651 35.7972 21.2923 35.9993 21.2923C36.2015 21.2923 36.3743 21.4651 36.3743 21.6673V27.5007C36.3743 30.6108 35.708 32.7111 34.3756 34.0436C33.0432 35.376 30.9428 36.0423 27.8327 36.0423Z" stroke="white"/>
<path d="M26.5105 11.9946L26.5176 11.9918L26.5246 11.9888C26.6513 11.9345 26.8122 11.9589 26.9356 12.0743L36.2641 21.4028C36.3686 21.5073 36.402 21.6754 36.3448 21.8089C36.282 21.9555 36.1453 22.0425 35.9993 22.0425H31.3327C29.3836 22.0425 28.1647 21.66 27.4192 20.9144C26.6736 20.1688 26.291 18.95 26.291 17.0009V12.3342C26.291 12.1776 26.3863 12.0434 26.5105 11.9946ZM27.8946 14.0923L27.041 13.2388V14.4459V17.0009C27.041 18.5062 27.2251 19.6496 27.9545 20.379C28.684 21.1085 29.8273 21.2925 31.3327 21.2925H33.8877H35.0948L34.2412 20.439L27.8946 14.0923Z" stroke="white"/>
<defs>
<linearGradient id="paint0_linear_924_6703" x1="11.332" y1="-8.69234e-08" x2="24.332" y2="48" gradientUnits="userSpaceOnUse">
<stop stop-color="#009E95"/>
<stop offset="1" stop-color="#01B8AE"/>
</linearGradient>
<linearGradient id="paint1_linear_924_6703" x1="11.332" y1="-8.69234e-08" x2="24.332" y2="48" gradientUnits="userSpaceOnUse">
<stop stop-color="#009E95"/>
<stop offset="1" stop-color="#01B8AE"/>
</linearGradient>
</defs>
</svg>
