<svg width="49" height="48" viewBox="0 0 49 48" fill="none" xmlns="http://www.w3.org/2000/svg">
<rect x="0.666016" width="48" height="48" rx="24" fill="url(#paint0_linear_924_7114)"/>
<rect x="0.666016" width="48" height="48" rx="24" fill="url(#paint1_linear_924_7114)"/>
<path d="M17.666 26.8722C17.4638 26.8722 17.291 26.6994 17.291 26.4972V21.4922C17.291 21.29 17.4638 21.1172 17.666 21.1172C17.8682 21.1172 18.041 21.29 18.041 21.4922V26.4972C18.041 26.7068 17.8726 26.8722 17.666 26.8722Z" stroke="white"/>
<path d="M21.166 28.539C20.9638 28.539 20.791 28.3662 20.791 28.164V19.834C20.791 19.6318 20.9638 19.459 21.166 19.459C21.3682 19.459 21.541 19.6318 21.541 19.834V28.164C21.541 28.3735 21.3726 28.539 21.166 28.539Z" stroke="white"/>
<path d="M24.666 30.2077C24.4638 30.2077 24.291 30.0349 24.291 29.8327V18.166C24.291 17.9638 24.4638 17.791 24.666 17.791C24.8682 17.791 25.041 17.9638 25.041 18.166V29.8327C25.041 30.0349 24.8682 30.2077 24.666 30.2077Z" stroke="white"/>
<path d="M28.166 28.539C27.9638 28.539 27.791 28.3662 27.791 28.164V19.834C27.791 19.6318 27.9638 19.459 28.166 19.459C28.3682 19.459 28.541 19.6318 28.541 19.834V28.164C28.541 28.3735 28.3726 28.539 28.166 28.539Z" stroke="white"/>
<path d="M31.666 26.8722C31.4638 26.8722 31.291 26.6994 31.291 26.4972V21.4922C31.291 21.29 31.4638 21.1172 31.666 21.1172C31.8682 21.1172 32.041 21.29 32.041 21.4922V26.4972C32.041 26.7068 31.8726 26.8722 31.666 26.8722Z" stroke="white"/>
<path d="M24.6667 36.0423C18.0245 36.0423 12.625 30.6428 12.625 24.0007C12.625 17.3585 18.0245 11.959 24.6667 11.959C31.3089 11.959 36.7083 17.3585 36.7083 24.0007C36.7083 30.6428 31.3089 36.0423 24.6667 36.0423ZM24.6667 12.709C18.4405 12.709 13.375 17.7745 13.375 24.0007C13.375 30.2268 18.4405 35.2923 24.6667 35.2923C30.8928 35.2923 35.9583 30.2268 35.9583 24.0007C35.9583 17.7745 30.8928 12.709 24.6667 12.709Z" stroke="white"/>
<defs>
<linearGradient id="paint0_linear_924_7114" x1="11.666" y1="-8.69234e-08" x2="24.666" y2="48" gradientUnits="userSpaceOnUse">
<stop stop-color="#009E95"/>
<stop offset="1" stop-color="#01B8AE"/>
</linearGradient>
<linearGradient id="paint1_linear_924_7114" x1="11.666" y1="-8.69234e-08" x2="24.666" y2="48" gradientUnits="userSpaceOnUse">
<stop stop-color="#009E95"/>
<stop offset="1" stop-color="#01B8AE"/>
</linearGradient>
</defs>
</svg>
