<svg width="24" height="24" viewBox="0 0 24 24" fill="none" xmlns="http://www.w3.org/2000/svg">
<g id="Icon">
<path id="Union" fill-rule="evenodd" clip-rule="evenodd" d="M8.70708 7.29292C8.51848 7.11076 8.26588 7.00997 8.00368 7.01224C7.74148 7.01452 7.49067 7.11969 7.30526 7.3051C7.11985 7.49051 7.01469 7.74132 7.01241 8.00352C7.01013 8.26572 7.11092 8.51832 7.29308 8.70692L10.5861 11.9999L7.29308 15.2929C7.19757 15.3852 7.12139 15.4955 7.06898 15.6175C7.01657 15.7395 6.98898 15.8707 6.98783 16.0035C6.98668 16.1363 7.01198 16.268 7.06226 16.3909C7.11254 16.5138 7.18679 16.6254 7.28069 16.7193C7.37458 16.8132 7.48623 16.8875 7.60913 16.9377C7.73202 16.988 7.8637 17.0133 7.99648 17.0122C8.12926 17.011 8.26048 16.9834 8.38249 16.931C8.50449 16.8786 8.61483 16.8024 8.70708 16.7069L12.0001 13.4139L15.2931 16.7069C15.4817 16.8891 15.7343 16.9899 15.9965 16.9876C16.2587 16.9853 16.5095 16.8801 16.6949 16.6947C16.8803 16.5093 16.9855 16.2585 16.9878 15.9963C16.99 15.7341 16.8892 15.4815 16.7071 15.2929L13.4141 11.9999L16.7071 8.70692C16.8892 8.51832 16.99 8.26572 16.9878 8.00352C16.9855 7.74132 16.8803 7.49051 16.6949 7.3051C16.5095 7.11969 16.2587 7.01452 15.9965 7.01224C15.7343 7.00997 15.4817 7.11076 15.2931 7.29292L12.0001 10.5859L8.70708 7.29292Z" fill="#535B62"/>
</g>
</svg>