<svg width="48" height="48" viewBox="0 0 48 48" fill="none" xmlns="http://www.w3.org/2000/svg">
<path d="M37.5001 15.1595V38.9629C37.5001 39.5951 36.9877 40.1075 36.3555 40.1075H13.7813C13.1492 40.1075 12.6367 39.5951 12.6367 38.9629V9.03525C12.6367 8.4031 13.1492 7.89062 13.7813 7.89062H30.2793L37.5001 15.1595Z" fill="white" stroke="#B2BFCF"/>
<path d="M37.9991 14.9533H32.1007C31.209 14.9533 30.4863 14.2305 30.4863 13.339V7.39062L37.9991 14.9533Z" fill="#B2BFCF"/>
<path d="M12.1366 20.3379C10.9399 20.4385 10 21.4415 10 22.6642C10 23.8869 10.9399 24.8898 12.1366 24.9904V20.3379Z" fill="#C42726"/>
<path d="M19.438 18.3255H20.1617C21.039 18.3255 21.4568 17.6855 21.4568 16.7354C21.4568 15.9215 21.0541 15.269 20.1669 15.269H19.438V18.3255ZM18.6328 14.6152H20.231C21.4846 14.6152 22.2892 15.4273 22.2892 16.7263C22.2892 18.0608 21.5025 18.9757 20.1921 18.9757H18.6328V14.6152Z" fill="white"/>
<path d="M23.1191 14.6152H25.9841V15.2823H23.9064V16.4783H25.8544V17.1418H23.9064V18.9757H23.1191V14.6152Z" fill="white"/>
<path d="M33.1259 25.5488H17.0121C16.6235 25.5488 16.3086 25.8638 16.3086 26.2523C16.3086 26.6408 16.6235 26.9558 17.0121 26.9558H33.1259C33.5144 26.9558 33.8293 26.6408 33.8293 26.2523C33.8293 25.8638 33.5144 25.5488 33.1259 25.5488Z" fill="#B2BFCF"/>
<path d="M33.1259 29.9453H17.0121C16.6235 29.9453 16.3086 30.2603 16.3086 30.6489C16.3086 31.0373 16.6235 31.3523 17.0121 31.3523H33.1259C33.5144 31.3523 33.8293 31.0373 33.8293 30.6489C33.8293 30.2603 33.5144 29.9453 33.1259 29.9453Z" fill="#B2BFCF"/>
<path d="M33.1259 34.3418H17.0121C16.6235 34.3418 16.3086 34.6567 16.3086 35.0453C16.3086 35.4338 16.6235 35.7487 17.0121 35.7487H33.1259C33.5144 35.7487 33.8293 35.4338 33.8293 35.0453C33.8293 34.6567 33.5144 34.3418 33.1259 34.3418Z" fill="#B2BFCF"/>
<path d="M39.8405 29.5664H10.8089C10.3622 29.5664 10 29.2043 10 28.7575V20.0628C10 19.6161 10.3622 19.2539 10.8089 19.2539H39.8405C40.2872 19.2539 40.6494 19.6161 40.6494 20.0628V28.7575C40.6494 29.2043 40.2872 29.5664 39.8405 29.5664Z" fill="#3375CC"/>
<path d="M39.7617 29.2934H10.8867V19.2539H39.7617V29.2934Z" fill="#3375CC"/>
<path d="M30.9633 27.25C30.4617 27.25 30.0358 27.1392 29.6858 26.9175C29.3358 26.6958 29.0687 26.3878 28.8843 25.9935C28.7023 25.5992 28.6113 25.143 28.6113 24.625C28.6113 24.107 28.7023 23.6508 28.8843 23.2565C29.0687 22.8622 29.3358 22.5542 29.6858 22.3325C30.0358 22.1108 30.4617 22 30.9633 22C31.5467 22 32.0262 22.1482 32.4018 22.4445C32.7798 22.7408 33.04 23.1398 33.1823 23.6415L32.5488 23.8095C32.4462 23.4338 32.263 23.1375 31.9993 22.9205C31.7357 22.7035 31.3903 22.595 30.9633 22.595C30.5877 22.595 30.275 22.6802 30.0253 22.8505C29.7757 23.0208 29.5878 23.2588 29.4618 23.5645C29.3358 23.8678 29.2717 24.2213 29.2693 24.625C29.267 25.0263 29.3288 25.3798 29.4548 25.6855C29.5808 25.9888 29.7698 26.2268 30.0218 26.3995C30.2738 26.5698 30.5877 26.655 30.9633 26.655C31.3903 26.655 31.7357 26.5465 31.9993 26.3295C32.263 26.1102 32.4462 25.8138 32.5488 25.4405L33.1823 25.6085C33.04 26.1078 32.7798 26.5068 32.4018 26.8055C32.0262 27.1018 31.5467 27.25 30.9633 27.25Z" fill="white"/>
<path d="M25.8364 27.25C25.3347 27.25 24.9089 27.1392 24.5589 26.9175C24.2089 26.6958 23.9417 26.3878 23.7574 25.9935C23.5754 25.5992 23.4844 25.143 23.4844 24.625C23.4844 24.107 23.5754 23.6508 23.7574 23.2565C23.9417 22.8622 24.2089 22.5542 24.5589 22.3325C24.9089 22.1108 25.3347 22 25.8364 22C26.3404 22 26.7674 22.1108 27.1174 22.3325C27.4674 22.5542 27.7334 22.8622 27.9154 23.2565C28.0974 23.6508 28.1884 24.107 28.1884 24.625C28.1884 25.143 28.0974 25.5992 27.9154 25.9935C27.7334 26.3878 27.4674 26.6958 27.1174 26.9175C26.7674 27.1392 26.3404 27.25 25.8364 27.25ZM25.8364 26.655C26.212 26.6573 26.5247 26.5733 26.7744 26.403C27.0264 26.2303 27.2142 25.9912 27.3379 25.6855C27.4639 25.3798 27.5269 25.0263 27.5269 24.625C27.5269 24.2213 27.4639 23.8678 27.3379 23.5645C27.2142 23.2612 27.0264 23.0243 26.7744 22.854C26.5247 22.6837 26.212 22.5973 25.8364 22.595C25.4607 22.5927 25.148 22.6767 24.8984 22.847C24.651 23.0173 24.4644 23.2553 24.3384 23.561C24.2124 23.8667 24.1482 24.2213 24.1459 24.625C24.1435 25.0263 24.2054 25.3787 24.3314 25.682C24.4574 25.9853 24.6452 26.2233 24.8949 26.396C25.1469 26.5663 25.4607 26.6527 25.8364 26.655Z" fill="white"/>
<path d="M19 27.1455V22.1055H20.554C20.6053 22.1055 20.6952 22.1066 20.8235 22.109C20.9518 22.1113 21.0743 22.1206 21.191 22.137C21.5807 22.1883 21.9062 22.3306 22.1675 22.564C22.4312 22.795 22.6295 23.089 22.7625 23.446C22.8955 23.803 22.962 24.1961 22.962 24.6255C22.962 25.0548 22.8955 25.448 22.7625 25.805C22.6295 26.162 22.4312 26.4571 22.1675 26.6905C21.9062 26.9215 21.5807 27.0626 21.191 27.114C21.0743 27.128 20.9507 27.1373 20.82 27.142C20.6917 27.1443 20.603 27.1455 20.554 27.1455H19ZM19.6405 26.5505H20.554C20.6427 26.5505 20.7418 26.5481 20.8515 26.5435C20.9612 26.5365 21.0568 26.526 21.1385 26.512C21.4138 26.4606 21.6367 26.3451 21.807 26.1655C21.9773 25.9858 22.1022 25.7618 22.1815 25.4935C22.2608 25.2251 22.3005 24.9358 22.3005 24.6255C22.3005 24.3081 22.2597 24.0153 22.178 23.747C22.0987 23.4786 21.9738 23.2558 21.8035 23.0785C21.6332 22.9011 21.4115 22.788 21.1385 22.739C21.0568 22.7226 20.96 22.7121 20.848 22.7075C20.736 22.7028 20.638 22.7005 20.554 22.7005H19.6405V26.5505Z" fill="white"/>
</svg>
