<svg width="48" height="48" viewBox="0 0 48 48" fill="none" xmlns="http://www.w3.org/2000/svg">
<path d="M37.5001 15.1605V38.9639C37.5001 39.596 36.9877 40.1085 36.3555 40.1085H13.7813C13.1492 40.1085 12.6367 39.596 12.6367 38.9639V9.03622C12.6367 8.40408 13.1492 7.8916 13.7813 7.8916H30.2793L37.5001 15.1605Z" fill="white" stroke="#B2BFCF"/>
<path d="M37.9999 14.9543H32.1014C31.2098 14.9543 30.4871 14.2315 30.4871 13.34V7.3916L37.9999 14.9543Z" fill="#B2BFCF"/>
<path d="M12.1366 20.3394C10.9399 20.44 10 21.443 10 22.6657C10 23.8883 10.9399 24.8913 12.1366 24.9919V20.3394Z" fill="#C42726"/>
<path d="M19.437 18.3258H20.1607C21.038 18.3258 21.4558 17.6857 21.4558 16.7357C21.4558 15.9217 21.0532 15.2693 20.1659 15.2693H19.437V18.3258ZM18.6318 14.6155H20.23C21.4836 14.6155 22.2882 15.4276 22.2882 16.7265C22.2882 18.0611 21.5016 18.976 20.1911 18.976H18.6318V14.6155Z" fill="white"/>
<path d="M23.1194 14.6155H25.9843V15.2826H23.9066V16.4785H25.8547V17.142H23.9066V18.976H23.1194V14.6155Z" fill="white"/>
<path d="M33.1251 25.55H17.0113C16.6228 25.55 16.3079 25.865 16.3079 26.2535C16.3079 26.642 16.6228 26.957 17.0113 26.957H33.1251C33.5137 26.957 33.8286 26.642 33.8286 26.2535C33.8286 25.865 33.5137 25.55 33.1251 25.55Z" fill="#B2BFCF"/>
<path d="M33.1251 29.9465H17.0113C16.6228 29.9465 16.3079 30.2616 16.3079 30.6501C16.3079 31.0385 16.6228 31.3535 17.0113 31.3535H33.1251C33.5137 31.3535 33.8286 31.0385 33.8286 30.6501C33.8286 30.2616 33.5137 29.9465 33.1251 29.9465Z" fill="#B2BFCF"/>
<path d="M33.1251 34.3433H17.0113C16.6228 34.3433 16.3079 34.6582 16.3079 35.0467C16.3079 35.4352 16.6228 35.7502 17.0113 35.7502H33.1251C33.5137 35.7502 33.8286 35.4352 33.8286 35.0467C33.8286 34.6582 33.5137 34.3433 33.1251 34.3433Z" fill="#B2BFCF"/>
<path d="M39.8405 29.5664H10.8089C10.3622 29.5664 10 29.2043 10 28.7575V20.0628C10 19.6161 10.3622 19.2539 10.8089 19.2539H39.8405C40.2872 19.2539 40.6494 19.6161 40.6494 20.0628V28.7575C40.6494 29.2043 40.2872 29.5664 39.8405 29.5664Z" fill="#45D4FF"/>
<path d="M39.7622 29.2934H10.8872V19.2539H39.7622V29.2934Z" fill="#45D4FF"/>
<path d="M21.1026 22.5109H19.6455V21.9849H23.1929V22.5109H21.7281V26.7761H21.1026V22.5109Z" fill="white"/>
<path d="M26.507 26.7761L25.8963 25.717C25.6475 25.3116 25.4909 25.0487 25.3413 24.7714H25.3274C25.1925 25.0487 25.0569 25.3046 24.8081 25.7239L24.2322 26.7761H23.5215L24.9863 24.3521L23.5788 21.9849H24.2965L24.929 23.1079C25.1073 23.4209 25.2421 23.6625 25.37 23.9184H25.3909C25.5266 23.634 25.6475 23.4137 25.825 23.1079L26.4791 21.9849H27.1898L25.7327 24.3164L27.2255 26.7761H26.507Z" fill="white"/>
<path d="M28.9136 22.5109H27.4565V21.9849H31.004V22.5109H29.5391V26.7761H28.9136V22.5109Z" fill="white"/>
</svg>
