<svg width="16" height="16" viewBox="0 0 16 16" fill="none" xmlns="http://www.w3.org/2000/svg">
<g id="vuesax/outline/3dcube">
<g id="3dcube">
<path id="Vector" d="M7.99999 8.16667C7.70666 8.16667 7.41332 8.09334 7.14666 7.95334L2.80666 5.61334C2.41332 5.4 2.16666 4.98 2.16666 4.51334C2.16666 4.04667 2.41332 3.62667 2.80666 3.41334L7.14666 1.07334C7.67999 0.786671 8.31999 0.786671 8.84666 1.07334L13.1867 3.41334C13.58 3.62667 13.8267 4.04667 13.8267 4.51334C13.8267 4.98 13.58 5.4 13.1867 5.61334L8.84666 7.95334C8.58666 8.1 8.29332 8.16667 7.99999 8.16667ZM7.99999 1.85334C7.87332 1.85334 7.73999 1.88667 7.61999 1.95334L3.28666 4.28667C3.17332 4.34667 3.16666 4.47334 3.16666 4.51334C3.16666 4.55334 3.17332 4.68 3.28666 4.73334L7.62666 7.07334C7.86666 7.2 8.13999 7.2 8.37999 7.07334L12.72 4.73334C12.8267 4.67334 12.84 4.54667 12.84 4.51334C12.84 4.47334 12.8333 4.34667 12.72 4.29334L8.37999 1.95334C8.25999 1.88667 8.12666 1.85334 7.99999 1.85334Z" fill="white"/>
<path id="Vector_2" d="M6.52001 15.1467C6.33334 15.1467 6.14001 15.1 5.96668 15.0133L1.92668 13C1.25334 12.66 0.833344 11.98 0.833344 11.2267V7.41332C0.833344 6.97999 1.05334 6.58665 1.42001 6.35999C1.79334 6.13332 2.24001 6.11332 2.62668 6.30665L6.66668 8.31999C7.34001 8.65999 7.76001 9.33332 7.76001 10.0933V13.9067C7.76001 14.34 7.54001 14.7333 7.17334 14.96C6.97334 15.0867 6.74668 15.1467 6.52001 15.1467ZM2.07334 7.17332C2.02001 7.17332 1.97334 7.19332 1.94668 7.20666C1.90668 7.23332 1.83334 7.29332 1.83334 7.41332V11.2267C1.83334 11.6 2.04001 11.94 2.37334 12.1067L6.40668 14.1267C6.51334 14.18 6.60001 14.14 6.64001 14.12C6.68001 14.0933 6.75334 14.0333 6.75334 13.9133V10.1C6.75334 9.72665 6.54668 9.38665 6.21334 9.21999L2.18001 7.19999C2.14001 7.17999 2.10668 7.17332 2.07334 7.17332Z" fill="white"/>
<path id="Vector_3" d="M9.47999 15.1467C9.25332 15.1467 9.02666 15.0867 8.82666 14.96C8.45999 14.7333 8.23999 14.34 8.23999 13.9067V10.0933C8.23999 9.34 8.65999 8.66 9.33332 8.32L13.3667 6.3C13.7533 6.10667 14.2067 6.12667 14.5733 6.35334C14.94 6.58 15.16 6.97334 15.16 7.40667V11.22C15.16 11.9733 14.74 12.6533 14.0667 12.9933L10.0333 15.0133C9.85999 15.1067 9.66666 15.1467 9.47999 15.1467ZM13.9267 7.17334C13.8933 7.17334 13.86 7.18 13.82 7.2L9.78666 9.22C9.45332 9.38667 9.24666 9.72 9.24666 10.1V13.9133C9.24666 14.0333 9.31999 14.0933 9.35999 14.12C9.39999 14.1467 9.48666 14.18 9.59332 14.1267L13.6267 12.1067C13.96 11.94 14.1667 11.6 14.1667 11.2267V7.41334C14.1667 7.29334 14.0933 7.23334 14.0533 7.20667C14.0267 7.19334 13.98 7.17334 13.9267 7.17334Z" fill="white"/>
</g>
</g>
</svg>
