<svg width="24" height="24" viewBox="0 0 24 24" fill="none" xmlns="http://www.w3.org/2000/svg">
<path d="M13.031 2.04877L13.0327 2.04971L19.5416 5.55913C19.5417 5.55919 19.5418 5.55925 19.542 5.55931C19.9646 5.78868 20.24 6.24624 20.24 6.76961C20.24 7.29298 19.9646 7.75054 19.542 7.97991C19.5418 7.97997 19.5417 7.98003 19.5416 7.98009L13.0327 11.4895L13.0327 11.4894L13.0243 11.4941C12.7186 11.6666 12.3653 11.7496 12 11.7496C11.644 11.7496 11.2844 11.6607 10.9547 11.4881L4.44838 7.98009C4.44822 7.98 4.44805 7.97992 4.44789 7.97983C4.02536 7.75042 3.75 7.29292 3.75 6.76961C3.75 6.24631 4.02536 5.78881 4.44787 5.5594C4.44804 5.55931 4.44821 5.55922 4.44838 5.55913L10.9567 2.05002C10.9568 2.04997 10.9569 2.04992 10.957 2.04986C11.6101 1.69897 12.391 1.70045 13.031 2.04877ZM11.2027 11.0497L11.2027 11.0497L11.2066 11.0518C11.7127 11.3189 12.2973 11.3189 12.8034 11.0518L12.8034 11.0518L12.8073 11.0497L19.3173 7.53971L19.3173 7.53979L19.3251 7.5354C19.5355 7.41708 19.6436 7.23709 19.6967 7.0991C19.748 6.96573 19.76 6.84286 19.76 6.76961C19.76 6.71558 19.7564 6.58556 19.7034 6.44051C19.6485 6.29019 19.5323 6.10564 19.308 5.99448L12.8098 2.49087C12.5567 2.35089 12.2743 2.27961 12 2.27961C11.7258 2.27961 11.4434 2.35087 11.1903 2.49079L4.69414 5.98873C4.25 6.22523 4.25 6.70155 4.25 6.7694V6.76961C4.25 6.82364 4.25362 6.95366 4.30662 7.09871C4.36154 7.24903 4.47765 7.43357 4.70202 7.54473L11.2027 11.0497Z" stroke="url(#paint0_linear_1156_3618)"/>
<path d="M9.17361 22.0726L9.17302 22.0723L3.11537 19.0534C3.11499 19.0532 3.1146 19.0531 3.11422 19.0529C2.27253 18.6273 1.75 17.7798 1.75 16.8398V11.1198C1.75 10.6438 1.98955 10.2152 2.39121 9.96612C2.80609 9.71499 3.29297 9.69527 3.71639 9.90698L3.71698 9.90728L9.77463 12.9261C9.77501 12.9263 9.77539 12.9265 9.77578 12.9267C10.6183 13.3526 11.14 14.1907 11.14 15.1398V20.8598C11.14 21.3364 10.8998 21.7655 10.4971 22.0145L10.4971 22.0144L10.4925 22.0174C10.2777 22.1534 10.0316 22.2198 9.78 22.2198C9.58083 22.2198 9.36711 22.1693 9.17361 22.0726ZM2.69639 10.3626L2.66855 10.3765L2.64265 10.3937C2.52681 10.471 2.25 10.6926 2.25 11.1198V16.8398C2.25 17.5856 2.66383 18.2706 3.3361 18.6068C3.3362 18.6069 3.33629 18.6069 3.33639 18.607L9.3861 21.6368L9.38639 21.637C9.76941 21.8285 10.093 21.6723 10.1836 21.627L10.2114 21.6131L10.2373 21.5958C10.3532 21.5186 10.63 21.2969 10.63 20.8698V15.1498C10.63 14.4039 10.2162 13.719 9.5439 13.3827C9.5438 13.3827 9.5437 13.3826 9.54361 13.3826L3.4939 10.3527L3.49361 10.3526C3.36536 10.2884 3.23893 10.2598 3.11 10.2598C2.91319 10.2598 2.75923 10.3311 2.69639 10.3626Z" stroke="url(#paint1_linear_1156_3618)"/>
<path d="M13.5075 22.0176L13.5075 22.0176L13.5029 22.0147C13.1002 21.7658 12.86 21.3367 12.86 20.86V15.14C12.86 14.1998 13.3827 13.3521 14.2247 12.9267C14.2249 12.9266 14.2251 12.9264 14.2254 12.9263L20.2736 9.89722C20.2737 9.89718 20.2737 9.89715 20.2738 9.89712C20.2738 9.8971 20.2739 9.89708 20.2739 9.89707C20.6994 9.68444 21.1952 9.70684 21.5971 9.9553C21.9998 10.2042 22.24 10.6334 22.24 11.11V16.83C22.24 17.7702 21.7173 18.6178 20.8753 19.0433C20.8751 19.0434 20.8749 19.0436 20.8746 19.0437L14.8261 22.0729L14.8195 22.0763L14.813 22.0798C14.6368 22.1746 14.4307 22.22 14.22 22.22C13.9684 22.22 13.7223 22.1536 13.5075 22.0176ZM20.5064 10.3528L20.5061 10.3529L14.4564 13.3828C14.4563 13.3828 14.4562 13.3829 14.4561 13.3829C13.7855 13.7184 13.37 14.3922 13.37 15.15V20.87C13.37 21.2971 13.6468 21.5188 13.7627 21.596C13.93 21.7076 14.2526 21.8177 14.6136 21.6372L14.6139 21.6371L20.6636 18.6072C20.6637 18.6072 20.6638 18.6071 20.6639 18.6071C21.3362 18.2708 21.75 17.5858 21.75 16.84V11.12C21.75 10.6929 21.4732 10.4712 21.3573 10.394L21.3314 10.3767L21.3036 10.3628C21.2408 10.3314 21.0868 10.26 20.89 10.26C20.7611 10.26 20.6346 10.2887 20.5064 10.3528Z" stroke="url(#paint2_linear_1156_3618)"/>
<defs>
<linearGradient id="paint0_linear_1156_3618" x1="7.25812" y1="1.28711" x2="9.19961" y2="12.7241" gradientUnits="userSpaceOnUse">
<stop stop-color="#009E95"/>
<stop offset="1" stop-color="#01B8AE"/>
</linearGradient>
<linearGradient id="paint1_linear_1156_3618" x1="3.63104" y1="9.26172" x2="8.14323" y2="22.124" gradientUnits="userSpaceOnUse">
<stop stop-color="#009E95"/>
<stop offset="1" stop-color="#01B8AE"/>
</linearGradient>
<linearGradient id="paint2_linear_1156_3618" x1="14.7388" y1="9.25195" x2="19.2603" y2="22.119" gradientUnits="userSpaceOnUse">
<stop stop-color="#009E95"/>
<stop offset="1" stop-color="#01B8AE"/>
</linearGradient>
</defs>
</svg>
