<svg width="24" height="25" viewBox="0 0 24 25" fill="none" xmlns="http://www.w3.org/2000/svg">
<g id="vuesax/outline/3dcube">
<g id="3dcube">
<path id="Vector" d="M12 12.7937C11.56 12.7937 11.12 12.6837 10.72 12.4737L4.21 8.96368C3.62 8.64368 3.25 8.01368 3.25 7.31368C3.25 6.61368 3.62 5.98368 4.21 5.66368L10.72 2.15368C11.52 1.72368 12.48 1.72368 13.27 2.15368L19.78 5.66368C20.37 5.98368 20.74 6.61368 20.74 7.31368C20.74 8.01368 20.37 8.64368 19.78 8.96368L13.27 12.4737C12.88 12.6937 12.44 12.7937 12 12.7937ZM12 3.32368C11.81 3.32368 11.61 3.37368 11.43 3.47368L4.93 6.97368C4.76 7.06368 4.75 7.25368 4.75 7.31368C4.75 7.37368 4.76 7.56368 4.93 7.64368L11.44 11.1537C11.8 11.3437 12.21 11.3437 12.57 11.1537L19.08 7.64368C19.24 7.55368 19.26 7.36368 19.26 7.31368C19.26 7.25368 19.25 7.06368 19.08 6.98368L12.57 3.47368C12.39 3.37368 12.19 3.32368 12 3.32368Z" fill="white"/>
<path id="Vector_2" d="M9.78 23.2637C9.5 23.2637 9.21 23.1937 8.95 23.0637L2.89 20.0437C1.88 19.5337 1.25 18.5137 1.25 17.3837V11.6637C1.25 11.0137 1.58 10.4237 2.13 10.0837C2.69 9.74371 3.36 9.71371 3.94 10.0037L10 13.0237C11.01 13.5337 11.64 14.5437 11.64 15.6837V21.4037C11.64 22.0537 11.31 22.6437 10.76 22.9837C10.46 23.1737 10.12 23.2637 9.78 23.2637ZM3.11 11.3037C3.03 11.3037 2.96 11.3337 2.92 11.3537C2.86 11.3937 2.75 11.4837 2.75 11.6637V17.3837C2.75 17.9437 3.06 18.4537 3.56 18.7037L9.61 21.7337C9.77 21.8137 9.9 21.7537 9.96 21.7237C10.02 21.6837 10.13 21.5937 10.13 21.4137V15.6937C10.13 15.1337 9.82 14.6237 9.32 14.3737L3.27 11.3437C3.21 11.3137 3.16 11.3037 3.11 11.3037Z" fill="white"/>
<path id="Vector_3" d="M14.2199 23.2637C13.8799 23.2637 13.5399 23.1737 13.2399 22.9837C12.6899 22.6437 12.3599 22.0537 12.3599 21.4037V15.6837C12.3599 14.5537 12.9899 13.5337 13.9999 13.0237L20.0499 9.9937C20.6299 9.7037 21.3099 9.7337 21.8599 10.0737C22.4099 10.4137 22.7399 11.0037 22.7399 11.6537V17.3737C22.7399 18.5037 22.1099 19.5237 21.0999 20.0337L15.0499 23.0637C14.7899 23.2037 14.4999 23.2637 14.2199 23.2637ZM20.8899 11.3037C20.8399 11.3037 20.7899 11.3137 20.7299 11.3437L14.6799 14.3737C14.1799 14.6237 13.8699 15.1237 13.8699 15.6937V21.4137C13.8699 21.5937 13.9799 21.6837 14.0399 21.7237C14.0999 21.7637 14.2299 21.8137 14.3899 21.7337L20.4399 18.7037C20.9399 18.4537 21.2499 17.9437 21.2499 17.3837V11.6637C21.2499 11.4837 21.1399 11.3937 21.0799 11.3537C21.0399 11.3337 20.9699 11.3037 20.8899 11.3037Z" fill="white"/>
</g>
</g>
</svg>
