<svg xmlns="http://www.w3.org/2000/svg" width="16" height="16" viewBox="0 0 16 16" fill="none">
  <path d="M11.3333 15.1668H4.66668C1.72668 15.1668 0.833344 14.2735 0.833344 11.3335V4.66683C0.833344 1.72683 1.72668 0.833496 4.66668 0.833496H5.66668C6.83334 0.833496 7.20001 1.2135 7.66668 1.8335L8.66668 3.16683C8.88668 3.46016 8.92001 3.50016 9.33334 3.50016H11.3333C14.2733 3.50016 15.1667 4.3935 15.1667 7.3335V11.3335C15.1667 14.2735 14.2733 15.1668 11.3333 15.1668ZM4.66668 1.8335C2.28001 1.8335 1.83334 2.28683 1.83334 4.66683V11.3335C1.83334 13.7135 2.28001 14.1668 4.66668 14.1668H11.3333C13.72 14.1668 14.1667 13.7135 14.1667 11.3335V7.3335C14.1667 4.9535 13.72 4.50016 11.3333 4.50016H9.33334C8.48001 4.50016 8.20001 4.20683 7.86668 3.76683L6.86668 2.4335C6.52001 1.9735 6.41334 1.8335 5.66668 1.8335H4.66668Z" fill="#535B62"/>
</svg>