<svg xmlns="http://www.w3.org/2000/svg" width="48" height="48" viewBox="0 0 48 48" fill="none">
  <path d="M37.5001 14.7689V38.5723C37.5001 39.2044 36.9876 39.7169 36.3555 39.7169H13.7813C13.1491 39.7169 12.6367 39.2044 12.6367 38.5723V8.64462C12.6367 8.01248 13.1491 7.5 13.7813 7.5H30.2792L37.5001 14.7689Z" fill="white" stroke="#B2BFCF"/>
  <path d="M37.9999 14.5627H32.1015C31.2099 14.5627 30.4872 13.8399 30.4872 12.9484V7L37.9999 14.5627Z" fill="#B2BFCF"/>
  <path d="M12.1366 12.8599V12.8683C10.9399 12.9689 10 13.9719 10 15.1946V22.274H12.1366V19.9478H27.9526C28.3092 19.9478 28.5983 19.6587 28.5983 19.302V13.5056C28.5983 13.1489 28.3092 12.8599 27.9526 12.8599H12.1366Z" fill="#EF393A"/>
  <path d="M12.1366 19.9478C10.9399 20.0484 10 21.0514 10 22.2741C10 23.4967 10.9399 24.4997 12.1366 24.6003V19.9478Z" fill="#C42726"/>
  <path d="M15.5344 16.2309H16.2893C16.7846 16.2309 17.0969 16.0326 17.0969 15.543C17.0969 15.0705 16.7624 14.8702 16.3099 14.8702H15.5344V16.2309ZM14.7291 14.2236H16.4062C17.2737 14.2236 17.9133 14.6955 17.9133 15.5266C17.9133 16.4317 17.2453 16.8765 16.3607 16.8765H15.5344V18.5841H14.7291V14.2236Z" fill="white"/>
  <path d="M19.437 17.9339H20.1607C21.038 17.9339 21.4558 17.2939 21.4558 16.3438C21.4558 15.5299 21.0532 14.8774 20.1659 14.8774H19.437V17.9339ZM18.6318 14.2236H20.23C21.4836 14.2236 22.2882 15.0357 22.2882 16.3347C22.2882 17.6692 21.5016 18.5841 20.1911 18.5841H18.6318V14.2236Z" fill="white"/>
  <path d="M23.1193 14.2236H25.9842V14.8907H23.9066V16.0867H25.8546V16.7502H23.9066V18.5841H23.1193V14.2236Z" fill="white"/>
  <path d="M33.1252 25.1582H17.0114C16.6228 25.1582 16.3079 25.4731 16.3079 25.8617C16.3079 26.2502 16.6228 26.5651 17.0114 26.5651H33.1252C33.5137 26.5651 33.8286 26.2502 33.8286 25.8617C33.8286 25.4731 33.5137 25.1582 33.1252 25.1582Z" fill="#B2BFCF"/>
  <path d="M33.1252 29.5552H17.0114C16.6228 29.5552 16.3079 29.8702 16.3079 30.2587C16.3079 30.6472 16.6228 30.9622 17.0114 30.9622H33.1252C33.5137 30.9622 33.8286 30.6472 33.8286 30.2587C33.8286 29.8702 33.5137 29.5552 33.1252 29.5552Z" fill="#B2BFCF"/>
  <path d="M33.1252 33.9517H17.0114C16.6228 33.9517 16.3079 34.2666 16.3079 34.6551C16.3079 35.0436 16.6228 35.3586 17.0114 35.3586H33.1252C33.5137 35.3586 33.8286 35.0436 33.8286 34.6551C33.8286 34.2666 33.5137 33.9517 33.1252 33.9517Z" fill="#B2BFCF"/>
</svg>