<svg width="18" height="18" viewBox="0 0 18 18" fill="none" xmlns="http://www.w3.org/2000/svg">
<path d="M8.99922 7.79102C11.0805 7.79102 12.768 6.15977 12.768 4.13477C12.768 2.10977 11.0805 0.478516 8.99922 0.478516C6.91797 0.478516 5.23047 2.10977 5.23047 4.13477C5.23047 6.15977 6.91797 7.79102 8.99922 7.79102ZM8.99922 1.77227C10.3773 1.77227 11.5023 2.84102 11.5023 4.16289C11.5023 5.48477 10.3773 6.55352 8.99922 6.55352C7.62109 6.55352 6.49609 5.48477 6.49609 4.16289C6.49609 2.84102 7.62109 1.77227 8.99922 1.77227Z" fill="white"/>
<path d="M10.8273 9.05664H7.17109C4.16172 9.05664 1.71484 11.5316 1.71484 14.541V16.8754C1.71484 17.2129 1.99609 17.5223 2.36172 17.5223C2.72734 17.5223 3.00859 17.241 3.00859 16.8754V14.541C3.00859 12.2348 4.89297 10.3223 7.22734 10.3223H10.8555C13.1617 10.3223 15.0742 12.2066 15.0742 14.541V16.8754C15.0742 17.2129 15.3555 17.5223 15.7211 17.5223C16.0867 17.5223 16.368 17.241 16.368 16.8754V14.541C16.2836 11.5316 13.8367 9.05664 10.8273 9.05664Z" fill="white"/>
</svg>
