<svg width="24" height="24" viewBox="0 0 24 24" fill="none" xmlns="http://www.w3.org/2000/svg">
<path d="M10.94 22.6501C10.46 22.6501 9.99002 22.5301 9.55002 22.2901C8.67002 21.8001 8.14002 20.9101 8.14002 19.9101V14.6101C8.14002 14.1101 7.81002 13.3601 7.50002 12.9801L3.76002 9.0201C3.13002 8.3901 2.65002 7.3101 2.65002 6.5001V4.2001C2.65002 2.6001 3.86002 1.3501 5.40002 1.3501H18.6C20.12 1.3501 21.35 2.5801 21.35 4.1001V6.3001C21.35 7.3501 20.72 8.5401 20.13 9.1301L15.8 12.9601C15.38 13.3101 15.05 14.0801 15.05 14.7001V19.0001C15.05 19.8901 14.49 20.9201 13.79 21.3401L12.41 22.2301C11.96 22.5101 11.45 22.6501 10.94 22.6501ZM5.40002 2.8501C4.70002 2.8501 4.15002 3.4401 4.15002 4.2001V6.5001C4.15002 6.8701 4.45002 7.5901 4.83002 7.9701L8.64002 11.9801C9.15002 12.6101 9.65002 13.6601 9.65002 14.6001V19.9001C9.65002 20.5501 10.1 20.8701 10.29 20.9701C10.71 21.2001 11.22 21.2001 11.61 20.9601L13 20.0701C13.28 19.9001 13.56 19.3601 13.56 19.0001V14.7001C13.56 13.6301 14.08 12.4501 14.83 11.8201L19.11 8.0301C19.45 7.6901 19.86 6.8801 19.86 6.2901V4.1001C19.86 3.4101 19.3 2.8501 18.61 2.8501H5.40002Z" fill="#535B62"/>
<path d="M5.99998 10.7498C5.85998 10.7498 5.72998 10.7098 5.59998 10.6398C5.24998 10.4198 5.13998 9.94978 5.35998 9.59978L10.29 1.69978C10.51 1.34978 10.97 1.23978 11.32 1.45978C11.67 1.67978 11.78 2.13978 11.56 2.48978L6.62998 10.3898C6.48998 10.6198 6.24998 10.7498 5.99998 10.7498Z" fill="#535B62"/>
<circle cx="20.5" cy="3.5" r="3.5" fill="url(#paint0_linear_784_14244)"/>
<defs>
<linearGradient id="paint0_linear_784_14244" x1="18.6042" y1="-1.26763e-08" x2="20.5" y2="7" gradientUnits="userSpaceOnUse">
<stop stop-color="#009E95"/>
<stop offset="1" stop-color="#01B8AE"/>
</linearGradient>
</defs>
</svg>