<svg width="48" height="48" viewBox="0 0 48 48" fill="none" xmlns="http://www.w3.org/2000/svg">
<path d="M37.5001 15.1605V38.9639C37.5001 39.596 36.9877 40.1085 36.3555 40.1085H13.7813C13.1492 40.1085 12.6367 39.596 12.6367 38.9639V9.03622C12.6367 8.40408 13.1492 7.8916 13.7813 7.8916H30.2793L37.5001 15.1605Z" fill="white" stroke="#B2BFCF"/>
<path d="M38.0001 14.9543H32.1017C31.21 14.9543 30.4873 14.2315 30.4873 13.34V7.3916L38.0001 14.9543Z" fill="#B2BFCF"/>
<path d="M19.437 18.3255H20.1607C21.038 18.3255 21.4558 17.6855 21.4558 16.7354C21.4558 15.9215 21.0532 15.269 20.1659 15.269H19.437V18.3255ZM18.6318 14.6152H20.23C21.4836 14.6152 22.2882 15.4273 22.2882 16.7263C22.2882 18.0608 21.5016 18.9757 20.1911 18.9757H18.6318V14.6152Z" fill="white"/>
<path d="M23.1194 14.6152H25.9843V15.2823H23.9066V16.4783H25.8547V17.1418H23.9066V18.9757H23.1194V14.6152Z" fill="white"/>
<path d="M33.1251 21.5498H17.0113C16.6228 21.5498 16.3079 21.8647 16.3079 22.2533C16.3079 22.6418 16.6228 22.9567 17.0113 22.9567H33.1251C33.5137 22.9567 33.8286 22.6418 33.8286 22.2533C33.8286 21.8647 33.5137 21.5498 33.1251 21.5498Z" fill="#B2BFCF"/>
<path d="M33.1251 25.9465H17.0113C16.6228 25.9465 16.3079 26.2616 16.3079 26.6501C16.3079 27.0385 16.6228 27.3535 17.0113 27.3535H33.1251C33.5137 27.3535 33.8286 27.0385 33.8286 26.6501C33.8286 26.2616 33.5137 25.9465 33.1251 25.9465Z" fill="#B2BFCF"/>
<path d="M33.1251 30.3433H17.0113C16.6228 30.3433 16.3079 30.6582 16.3079 31.0467C16.3079 31.4352 16.6228 31.7502 17.0113 31.7502H33.1251C33.5137 31.7502 33.8286 31.4352 33.8286 31.0467C33.8286 30.6582 33.5137 30.3433 33.1251 30.3433Z" fill="#B2BFCF"/>
</svg>
