<svg width="48" height="48" viewBox="0 0 48 48" fill="none" xmlns="http://www.w3.org/2000/svg">
<path d="M37.5001 15.1614V38.9649C37.5001 39.597 36.9877 40.1095 36.3555 40.1095H13.7813C13.1492 40.1095 12.6367 39.597 12.6367 38.9649V9.0372C12.6367 8.40506 13.1492 7.89258 13.7813 7.89258H30.2793L37.5001 15.1614Z" fill="white" stroke="#B2BFCF"/>
<rect width="20" height="20" transform="translate(15 14)" fill="white"/>
<path d="M24.9993 32.9577C20.0577 32.9577 16.041 28.941 16.041 23.9993C16.041 19.0577 20.0577 15.041 24.9993 15.041C29.941 15.041 33.9577 19.0577 33.9577 23.9993C33.9577 28.941 29.941 32.9577 24.9993 32.9577ZM24.9993 16.291C20.7493 16.291 17.291 19.7493 17.291 23.9993C17.291 28.2493 20.7493 31.7077 24.9993 31.7077C29.2493 31.7077 32.7077 28.2493 32.7077 23.9993C32.7077 19.7493 29.2493 16.291 24.9993 16.291Z" fill="url(#paint0_linear_924_2225)"/>
<path d="M22.4992 32.125H21.6659C21.3242 32.125 21.0409 31.8417 21.0409 31.5C21.0409 31.1583 21.3076 30.8833 21.6492 30.875C20.3409 26.4083 20.3409 21.5917 21.6492 17.125C21.3076 17.1167 21.0409 16.8417 21.0409 16.5C21.0409 16.1583 21.3242 15.875 21.6659 15.875H22.4992C22.6992 15.875 22.8909 15.975 23.0076 16.1333C23.1242 16.3 23.1576 16.5083 23.0909 16.7C21.5242 21.4083 21.5242 26.5917 23.0909 31.3083C23.1576 31.5 23.1242 31.7083 23.0076 31.875C22.8909 32.025 22.6992 32.125 22.4992 32.125Z" fill="url(#paint1_linear_924_2225)"/>
<path d="M27.5 32.1243C27.4333 32.1243 27.3667 32.1159 27.3 32.0909C26.975 31.9826 26.7917 31.6243 26.9083 31.2993C28.475 26.5909 28.475 21.4076 26.9083 16.6909C26.8 16.3659 26.975 16.0076 27.3 15.8993C27.6333 15.7909 27.9833 15.9659 28.0917 16.2909C29.75 21.2576 29.75 26.7243 28.0917 31.6826C28.0083 31.9576 27.7583 32.1243 27.5 32.1243Z" fill="url(#paint2_linear_924_2225)"/>
<path d="M25 28.334C22.675 28.334 20.3583 28.009 18.125 27.3506C18.1167 27.684 17.8417 27.959 17.5 27.959C17.1583 27.959 16.875 27.6756 16.875 27.334V26.5006C16.875 26.3006 16.975 26.109 17.1333 25.9923C17.3 25.8756 17.5083 25.8423 17.7 25.909C22.4083 27.4756 27.6 27.4756 32.3083 25.909C32.5 25.8423 32.7083 25.8756 32.875 25.9923C33.0417 26.109 33.1333 26.3006 33.1333 26.5006V27.334C33.1333 27.6756 32.85 27.959 32.5083 27.959C32.1667 27.959 31.8917 27.6923 31.8833 27.3506C29.6417 28.009 27.325 28.334 25 28.334Z" fill="url(#paint3_linear_924_2225)"/>
<path d="M32.4992 22.1245C32.4325 22.1245 32.3658 22.1161 32.2992 22.0911C27.5908 20.5245 22.3992 20.5245 17.6908 22.0911C17.3575 22.1995 17.0075 22.0245 16.8992 21.6995C16.7992 21.3661 16.9742 21.0161 17.2992 20.9078C22.2658 19.2495 27.7325 19.2495 32.6908 20.9078C33.0158 21.0161 33.1992 21.3745 33.0825 21.6995C33.0075 21.9578 32.7575 22.1245 32.4992 22.1245Z" fill="url(#paint4_linear_924_2225)"/>
<path d="M30.9863 8.60536L36.7976 14.4553H32.1007C31.4852 14.4553 30.9863 13.9564 30.9863 13.3409V8.60536Z" fill="white" stroke="#B2BFCF"/>
<defs>
<linearGradient id="paint0_linear_924_2225" x1="20.1469" y1="15.041" x2="24.9993" y2="32.9577" gradientUnits="userSpaceOnUse">
<stop stop-color="#009E95"/>
<stop offset="1" stop-color="#01B8AE"/>
</linearGradient>
<linearGradient id="paint1_linear_924_2225" x1="21.231" y1="15.875" x2="28.6545" y2="20.0192" gradientUnits="userSpaceOnUse">
<stop stop-color="#009E95"/>
<stop offset="1" stop-color="#01B8AE"/>
</linearGradient>
<linearGradient id="paint2_linear_924_2225" x1="27.4373" y1="15.8672" x2="34.8711" y2="20.0245" gradientUnits="userSpaceOnUse">
<stop stop-color="#009E95"/>
<stop offset="1" stop-color="#01B8AE"/>
</linearGradient>
<linearGradient id="paint3_linear_924_2225" x1="20.6009" y1="25.875" x2="20.7088" y2="28.5099" gradientUnits="userSpaceOnUse">
<stop stop-color="#009E95"/>
<stop offset="1" stop-color="#01B8AE"/>
</linearGradient>
<linearGradient id="paint4_linear_924_2225" x1="20.5943" y1="19.6641" x2="20.7024" y2="22.3005" gradientUnits="userSpaceOnUse">
<stop stop-color="#009E95"/>
<stop offset="1" stop-color="#01B8AE"/>
</linearGradient>
</defs>
</svg>
