<svg xmlns="http://www.w3.org/2000/svg" width="48" height="48" viewBox="0 0 48 48" fill="none">
  <path d="M37.5001 15.1605V38.9639C37.5001 39.596 36.9876 40.1085 36.3555 40.1085H13.7813C13.1491 40.1085 12.6367 39.596 12.6367 38.9639V9.03622C12.6367 8.40408 13.1491 7.8916 13.7813 7.8916H30.2792L37.5001 15.1605Z" fill="white" stroke="#B2BFCF"/>
  <path d="M37.9999 14.9543H32.1015C31.2099 14.9543 30.4872 14.2315 30.4872 13.34V7.3916L37.9999 14.9543Z" fill="#B2BFCF"/>
  <path d="M12.1366 20.3394C10.9399 20.44 10 21.443 10 22.6657C10 23.8883 10.9399 24.8913 12.1366 24.9919V20.3394Z" fill="#C42726"/>
  <path d="M19.437 18.3255H20.1607C21.038 18.3255 21.4558 17.6855 21.4558 16.7354C21.4558 15.9215 21.0532 15.269 20.1659 15.269H19.437V18.3255ZM18.6318 14.6152H20.23C21.4836 14.6152 22.2882 15.4273 22.2882 16.7263C22.2882 18.0608 21.5016 18.9757 20.1911 18.9757H18.6318V14.6152Z" fill="white"/>
  <path d="M23.1193 14.6152H25.9842V15.2823H23.9066V16.4783H25.8546V17.1418H23.9066V18.9757H23.1193V14.6152Z" fill="white"/>
  <path d="M33.1252 25.5498H17.0114C16.6228 25.5498 16.3079 25.8647 16.3079 26.2533C16.3079 26.6418 16.6228 26.9567 17.0114 26.9567H33.1252C33.5137 26.9567 33.8286 26.6418 33.8286 26.2533C33.8286 25.8647 33.5137 25.5498 33.1252 25.5498Z" fill="#B2BFCF"/>
  <path d="M33.1252 29.9468H17.0114C16.6228 29.9468 16.3079 30.2618 16.3079 30.6503C16.3079 31.0388 16.6228 31.3538 17.0114 31.3538H33.1252C33.5137 31.3538 33.8286 31.0388 33.8286 30.6503C33.8286 30.2618 33.5137 29.9468 33.1252 29.9468Z" fill="#B2BFCF"/>
  <path d="M33.1252 34.3433H17.0114C16.6228 34.3433 16.3079 34.6582 16.3079 35.0467C16.3079 35.4352 16.6228 35.7502 17.0114 35.7502H33.1252C33.5137 35.7502 33.8286 35.4352 33.8286 35.0467C33.8286 34.6582 33.5137 34.3433 33.1252 34.3433Z" fill="#B2BFCF"/>
  <path d="M39.8405 29.5664H10.8089C10.3622 29.5664 10 29.2043 10 28.7575V20.0628C10 19.6161 10.3622 19.2539 10.8089 19.2539H39.8405C40.2872 19.2539 40.6494 19.6161 40.6494 20.0628V28.7575C40.6494 29.2043 40.2872 29.5664 39.8405 29.5664Z" fill="#3375CC"/>
  <path d="M39.7622 29.2934H10.8872V19.2539H39.7622V29.2934Z" fill="#3375CC"/>
  <path d="M30.9636 27.25C30.4619 27.25 30.0361 27.1392 29.6861 26.9175C29.3361 26.6958 29.0689 26.3878 28.8846 25.9935C28.7026 25.5992 28.6116 25.143 28.6116 24.625C28.6116 24.107 28.7026 23.6508 28.8846 23.2565C29.0689 22.8622 29.3361 22.5542 29.6861 22.3325C30.0361 22.1108 30.4619 22 30.9636 22C31.5469 22 32.0264 22.1482 32.4021 22.4445C32.7801 22.7408 33.0403 23.1398 33.1826 23.6415L32.5491 23.8095C32.4464 23.4338 32.2633 23.1375 31.9996 22.9205C31.7359 22.7035 31.3906 22.595 30.9636 22.595C30.5879 22.595 30.2753 22.6802 30.0256 22.8505C29.7759 23.0208 29.5881 23.2588 29.4621 23.5645C29.3361 23.8678 29.2719 24.2213 29.2696 24.625C29.2673 25.0263 29.3291 25.3798 29.4551 25.6855C29.5811 25.9888 29.7701 26.2268 30.0221 26.3995C30.2741 26.5698 30.5879 26.655 30.9636 26.655C31.3906 26.655 31.7359 26.5465 31.9996 26.3295C32.2633 26.1102 32.4464 25.8138 32.5491 25.4405L33.1826 25.6085C33.0403 26.1078 32.7801 26.5068 32.4021 26.8055C32.0264 27.1018 31.5469 27.25 30.9636 27.25Z" fill="white"/>
  <path d="M25.8366 27.25C25.335 27.25 24.9091 27.1392 24.5591 26.9175C24.2091 26.6958 23.942 26.3878 23.7576 25.9935C23.5756 25.5992 23.4846 25.143 23.4846 24.625C23.4846 24.107 23.5756 23.6508 23.7576 23.2565C23.942 22.8622 24.2091 22.5542 24.5591 22.3325C24.9091 22.1108 25.335 22 25.8366 22C26.3407 22 26.7677 22.1108 27.1177 22.3325C27.4676 22.5542 27.7337 22.8622 27.9157 23.2565C28.0977 23.6508 28.1887 24.107 28.1887 24.625C28.1887 25.143 28.0977 25.5992 27.9157 25.9935C27.7337 26.3878 27.4676 26.6958 27.1177 26.9175C26.7677 27.1392 26.3407 27.25 25.8366 27.25ZM25.8366 26.655C26.2123 26.6573 26.525 26.5733 26.7746 26.403C27.0266 26.2303 27.2145 25.9912 27.3382 25.6855C27.4641 25.3798 27.5272 25.0263 27.5272 24.625C27.5272 24.2213 27.4641 23.8678 27.3382 23.5645C27.2145 23.2612 27.0266 23.0243 26.7746 22.854C26.525 22.6837 26.2123 22.5973 25.8366 22.595C25.461 22.5927 25.1483 22.6767 24.8986 22.847C24.6513 23.0173 24.4646 23.2553 24.3386 23.561C24.2126 23.8667 24.1485 24.2213 24.1461 24.625C24.1438 25.0263 24.2056 25.3787 24.3316 25.682C24.4576 25.9853 24.6455 26.2233 24.8951 26.396C25.1471 26.5663 25.461 26.6527 25.8366 26.655Z" fill="white"/>
  <path d="M19 27.145V22.105H20.554C20.6053 22.105 20.6952 22.1061 20.8235 22.1085C20.9518 22.1108 21.0743 22.1201 21.191 22.1365C21.5807 22.1878 21.9062 22.3301 22.1675 22.5635C22.4312 22.7945 22.6295 23.0885 22.7625 23.4455C22.8955 23.8025 22.962 24.1956 22.962 24.625C22.962 25.0543 22.8955 25.4475 22.7625 25.8045C22.6295 26.1615 22.4312 26.4566 22.1675 26.69C21.9062 26.921 21.5807 27.0621 21.191 27.1135C21.0743 27.1275 20.9507 27.1368 20.82 27.1415C20.6917 27.1438 20.603 27.145 20.554 27.145H19ZM19.6405 26.55H20.554C20.6427 26.55 20.7418 26.5476 20.8515 26.543C20.9612 26.536 21.0568 26.5255 21.1385 26.5115C21.4138 26.4601 21.6367 26.3446 21.807 26.165C21.9773 25.9853 22.1022 25.7613 22.1815 25.493C22.2608 25.2246 22.3005 24.9353 22.3005 24.625C22.3005 24.3076 22.2597 24.0148 22.178 23.7465C22.0987 23.4781 21.9738 23.2553 21.8035 23.078C21.6332 22.9006 21.4115 22.7875 21.1385 22.7385C21.0568 22.7221 20.96 22.7116 20.848 22.707C20.736 22.7023 20.638 22.7 20.554 22.7H19.6405V26.55Z" fill="white"/>
</svg>